<svg xmlns="http://www.w3.org/2000/svg" id="Layer_1" data-name="Layer 1" viewBox="0 0 140 51.75"><defs><style>      .cls-1 {        fill: #fff;      }    </style></defs><path class="cls-1" d="M19.13,14.97c-1.85-.98-4.07-1.47-6.63-1.47H3.85v24.75h8.61c2.57,0,4.79-.48,6.65-1.45,1.87-.97,3.3-2.37,4.31-4.22,1.01-1.84,1.51-4.07,1.51-6.69s-.5-4.82-1.51-6.67c-1.01-1.85-2.43-3.27-4.29-4.25ZM18.55,30.04c-.62,1.07-1.48,1.85-2.58,2.34-1.1.5-2.39.75-3.87.75h-2.94v-14.5h2.98c1.48,0,2.77.26,3.87.78,1.1.52,1.96,1.31,2.56,2.38.61,1.07.91,2.44.91,4.11s-.31,3.08-.93,4.14Z"></path><path class="cls-1" d="M38.93,21.28c-1.33-.82-2.91-1.24-4.73-1.24s-3.33.39-4.67,1.18c-1.35.79-2.39,1.88-3.13,3.29-.74,1.41-1.11,3.03-1.11,4.87s.37,3.49,1.11,4.87c.74,1.38,1.78,2.45,3.13,3.2,1.34.75,2.9,1.13,4.67,1.13,1.94,0,3.61-.39,5.02-1.18,1.4-.79,2.5-1.9,3.27-3.33l-3.6-2c-.46.68-1.02,1.25-1.69,1.71-.67.46-1.57.69-2.71.69-1.36,0-2.42-.37-3.18-1.11-.63-.61-1-1.43-1.11-2.45h12.79c.02-.17.05-.4.07-.69.02-.29.04-.59.04-.91,0-1.74-.36-3.31-1.09-4.71-.73-1.39-1.76-2.5-3.09-3.33ZM34.24,24.15c1.38,0,2.4.42,3.07,1.27.38.49.65,1.06.82,1.71h-7.84c.16-.73.49-1.35.99-1.85.74-.75,1.73-1.13,2.96-1.13Z"></path><polygon class="cls-1" points="52.03 31.76 48.23 20.48 42.78 20.48 49.5 38.25 54.63 38.25 61.02 20.48 55.68 20.48 52.03 31.76"></polygon><path class="cls-1" d="M67.29,37.05c1.88,1.09,4.1,1.64,6.67,1.64,2.91,0,5.29-.63,7.16-1.89,1.87-1.26,3.29-3.05,4.29-5.38l-4.83-1.85c-.8,1.38-1.74,2.39-2.82,3.02-1.08.63-2.34.94-3.8.94s-2.61-.31-3.69-.94c-1.08-.63-1.93-1.52-2.54-2.67-.62-1.15-.93-2.49-.93-4.02s.31-2.9.93-4.03c.62-1.14,1.47-2.03,2.54-2.67,1.08-.64,2.31-.96,3.69-.96,1.45,0,2.72.32,3.8.96,1.08.64,2.02,1.65,2.82,3.03l4.83-1.85c-.99-2.33-2.42-4.12-4.29-5.38-1.87-1.26-4.25-1.89-7.16-1.89-1.84,0-3.53.31-5.07.93-1.54.62-2.87,1.5-3.98,2.65-1.11,1.15-1.98,2.51-2.6,4.07s-.93,3.28-.93,5.14c0,2.5.51,4.71,1.55,6.63,1.03,1.93,2.48,3.43,4.36,4.52Z"></path><path class="cls-1" d="M91.23,37.5c1.4.79,3.03,1.18,4.87,1.18s3.5-.39,4.91-1.18,2.5-1.88,3.29-3.29c.79-1.4,1.18-3.02,1.18-4.83s-.39-3.46-1.18-4.87c-.79-1.41-1.88-2.5-3.29-3.29-1.41-.79-3.04-1.18-4.91-1.18s-3.47.39-4.87,1.18c-1.41.79-2.5,1.88-3.27,3.29-.78,1.41-1.16,3.03-1.16,4.87s.39,3.43,1.16,4.83c.78,1.41,1.87,2.5,3.27,3.29ZM93.28,26.31c.74-.76,1.69-1.14,2.85-1.14s2.11.39,2.85,1.16c.74.78,1.11,1.79,1.11,3.05s-.37,2.24-1.11,3c-.74.76-1.69,1.14-2.85,1.14s-2.11-.38-2.85-1.14c-.74-.76-1.11-1.77-1.11-3.03s.37-2.27,1.11-3.03Z"></path><path class="cls-1" d="M112.09,26.44c.2-.19.43-.35.67-.49.88-.5,2.1-.74,3.65-.74h1.2v-4.83c-.19-.12-.45-.21-.76-.25-.32-.05-.67-.07-1.05-.07-.78,0-1.53.19-2.27.56-.74.38-1.38.83-1.93,1.36-.13.13-.25.25-.37.37l-.52-1.86h-3.93v17.77h5.31v-11.81Z"></path><path class="cls-1" d="M135.06,24.6c-.73-1.39-1.76-2.5-3.09-3.33-1.33-.82-2.91-1.24-4.73-1.24s-3.33.39-4.67,1.18c-1.35.79-2.39,1.88-3.13,3.29-.74,1.41-1.11,3.03-1.11,4.87s.37,3.49,1.11,4.87c.74,1.38,1.78,2.45,3.13,3.2,1.34.75,2.9,1.13,4.67,1.13,1.94,0,3.61-.39,5.02-1.18,1.4-.79,2.5-1.9,3.27-3.33l-3.6-2c-.46.68-1.02,1.25-1.69,1.71-.67.46-1.57.69-2.71.69-1.36,0-2.42-.37-3.18-1.11-.63-.61-1-1.43-1.11-2.45h12.79c.02-.17.05-.4.07-.69.02-.29.04-.59.04-.91,0-1.74-.36-3.31-1.09-4.71ZM127.28,24.15c1.38,0,2.4.42,3.07,1.27.38.49.65,1.06.82,1.71h-7.84c.16-.73.49-1.35.99-1.85.74-.75,1.73-1.13,2.96-1.13Z"></path><rect class="cls-1" x="4.02" y="2.81" width="57" height="5.31"></rect><rect class="cls-1" x="62.4" y="43.63" width="73.63" height="5.31"></rect></svg>